<?xml version="1.0" encoding="UTF-8"?>
<!DOCTYPE svg PUBLIC "-//W3C//DTD SVG 1.1//EN" "http://www.w3.org/Graphics/SVG/1.1/DTD/svg11.dtd">
<!-- Creator: CorelDRAW -->
<svg xmlns="http://www.w3.org/2000/svg" xml:space="preserve" width="225.552mm" height="98.552mm" version="1.1" style="shape-rendering:geometricPrecision; text-rendering:geometricPrecision; image-rendering:optimizeQuality; fill-rule:evenodd; clip-rule:evenodd"
viewBox="0 0 22555.2 9855.2"
 xmlns:xlink="http://www.w3.org/1999/xlink"
 xmlns:xodm="http://www.corel.com/coreldraw/odm/2003">
 <defs>
  <style type="text/css">
   <![CDATA[
    .fil0 {fill:#FF843E}
   ]]>
  </style>
 </defs>
 <g id="Слой_x0020_1">
  <metadata id="CorelCorpID_0Corel-Layer"/>
  <path class="fil0" d="M12019.14 7581.68c-21.8,-14.51 41.09,-59.2 152.26,-128.1 111.17,-68.89 270.64,-162 436.49,-217.95 165.85,-55.95 338.08,-74.74 508.51,-68.84 170.42,5.9 339.03,36.48 444.2,64.36 105.17,27.88 146.9,53.06 157.01,47.76 10.1,-5.29 -11.41,-41.05 -45.29,-198.83 -33.88,-157.77 -80.11,-437.55 -53.22,-731.15 26.89,-293.6 126.91,-601.01 271.41,-868.34 144.49,-267.33 333.46,-494.57 591.09,-654.09 257.62,-159.53 583.89,-251.34 888.88,-286.02 304.99,-34.68 588.68,-12.25 804.76,36.29 216.09,48.54 364.55,123.19 507.68,216.88 143.13,93.69 280.92,206.42 346.68,258.09 65.77,51.68 59.5,42.28 87.4,-78.92 27.91,-121.2 89.98,-354.2 225.07,-640.54 135.09,-286.34 343.19,-626.01 705.58,-935.78 362.4,-309.77 879.09,-589.64 1257.24,-748.65 378.15,-159.02 617.77,-197.18 740.6,-215.65 122.84,-18.48 128.89,-17.27 122.97,841.46 -5.91,858.72 -23.8,2574.97 -31,3430.06 -7.19,855.1 -3.69,849.04 -19.35,849.04 -15.66,0 -50.47,6.06 -1364.37,9.08 -1313.89,3.03 -3906.87,3.03 -5256.6,10.86 -1349.73,7.83 -1456.2,23.49 -1478,8.98z"/>
 </g>
</svg>
